REM DIRINDEX 1\2,1\3,1\4
REM DIRNAME folder01,folder02,folder03,folder04
TITLE ""
FILE "Disc2Track07.mp3" MP3
  TRACK 01 AUDIO
    TITLE "0:"
    INDEX 01 00:00:00
  TRACK 02 AUDIO
    TITLE "4:cjc085_1427"
    INDEX 01 00:04:72
  TRACK 03 AUDIO
    TITLE "0:"
    INDEX 01 00:07:72
  TRACK 04 AUDIO
    TITLE "4:cjc085_1428"
    INDEX 01 00:09:38
  TRACK 05 AUDIO
    TITLE "2:cjc085_1429"
    INDEX 01 00:12:32
  TRACK 06 AUDIO
    TITLE "0:"
    INDEX 01 00:16:36
  TRACK 07 AUDIO
    TITLE "3:cjc085_1430"
    INDEX 01 00:16:69
  TRACK 08 AUDIO
    TITLE "0:"
    INDEX 01 00:21:23
  TRACK 09 AUDIO
    TITLE "4:cjc085_1431"
    INDEX 01 00:22:03
  TRACK 10 AUDIO
    TITLE "2:cjc085_1432"
    INDEX 01 00:24:74
  TRACK 11 AUDIO
    TITLE "0:"
    INDEX 01 00:27:49
  TRACK 12 AUDIO
    TITLE "3:cjc085_1433"
    INDEX 01 00:27:71
  TRACK 13 AUDIO
    TITLE "0:"
    INDEX 01 00:30:40
  TRACK 14 AUDIO
    TITLE "4:cjc085_1434"
    INDEX 01 00:32:01
  TRACK 15 AUDIO
    TITLE "2:cjc085_1435"
    INDEX 01 00:34:38
  TRACK 16 AUDIO
    TITLE "0:"
    INDEX 01 00:39:51
  TRACK 17 AUDIO
    TITLE "3:cjc085_1436"
    INDEX 01 00:39:74
  TRACK 18 AUDIO
    TITLE "0:"
    INDEX 01 00:45:00
  TRACK 19 AUDIO
    TITLE "4:cjc085_1437"
    INDEX 01 00:45:22
  TRACK 20 AUDIO
    TITLE "2:cjc085_1438"
    INDEX 01 00:48:10
  TRACK 21 AUDIO
    TITLE "0:"
    INDEX 01 00:51:01
  TRACK 22 AUDIO
    TITLE "3:cjc085_1439"
    INDEX 01 00:51:69
  TRACK 23 AUDIO
    TITLE "0:"
    INDEX 01 00:55:08
  TRACK 24 AUDIO
    TITLE "4:cjc085_1440"
    INDEX 01 00:55:67
  TRACK 25 AUDIO
    TITLE "2:cjc085_1441"
    INDEX 01 00:58:22
  TRACK 26 AUDIO
    TITLE "0:"
    INDEX 01 01:00:72
  TRACK 27 AUDIO
    TITLE "3:cjc085_1442"
    INDEX 01 01:01:60
  TRACK 28 AUDIO
    TITLE "0:"
    INDEX 01 01:04:47
  TRACK 29 AUDIO
    TITLE "4:cjc085_1443"
    INDEX 01 01:05:05
  TRACK 30 AUDIO
    TITLE "2:cjc085_1444"
    INDEX 01 01:07:51
  TRACK 31 AUDIO
    TITLE "0:"
    INDEX 01 01:12:71
  TRACK 32 AUDIO
    TITLE "3:cjc085_1445"
    INDEX 01 01:13:38
  TRACK 33 AUDIO
    TITLE "0:"
    INDEX 01 01:17:63
  TRACK 34 AUDIO
    TITLE "4:cjc085_1446"
    INDEX 01 01:18:39
  TRACK 35 AUDIO
    TITLE "2:cjc085_1447"
    INDEX 01 01:21:06
  TRACK 36 AUDIO
    TITLE "0:"
    INDEX 01 01:24:02
  TRACK 37 AUDIO
    TITLE "3:cjc085_1448"
    INDEX 01 01:24:57
  TRACK 38 AUDIO
    TITLE "0:"
    INDEX 01 01:27:03
  TRACK 39 AUDIO
    TITLE "4:cjc085_1449"
    INDEX 01 01:27:53
  TRACK 40 AUDIO
    TITLE "2:cjc085_1450"
    INDEX 01 01:30:07
  TRACK 41 AUDIO
    TITLE "0:"
    INDEX 01 01:35:04
  TRACK 42 AUDIO
    TITLE "3:cjc085_1451"
    INDEX 01 01:35:47
  TRACK 43 AUDIO
    TITLE "0:"
    INDEX 01 01:39:74
  TRACK 44 AUDIO
    TITLE "4:cjc085_1452"
    INDEX 01 01:42:22
  TRACK 45 AUDIO
    TITLE "2:cjc085_1453"
    INDEX 01 01:44:56
  TRACK 46 AUDIO
    TITLE "0:"
    INDEX 01 01:49:16
  TRACK 47 AUDIO
    TITLE "3:cjc085_1454"
    INDEX 01 01:49:63
  TRACK 48 AUDIO
    TITLE "0:"
    INDEX 01 01:54:07
  TRACK 49 AUDIO
    TITLE "4:cjc085_1455"
    INDEX 01 01:55:05
  TRACK 50 AUDIO
    TITLE "2:cjc085_1456"
    INDEX 01 01:57:43
  TRACK 51 AUDIO
    TITLE "0:"
    INDEX 01 02:01:66
  TRACK 52 AUDIO
    TITLE "3:cjc085_1457"
    INDEX 01 02:02:17
  TRACK 53 AUDIO
    TITLE "0:"
    INDEX 01 02:06:32
  TRACK 54 AUDIO
    TITLE "4:cjc085_1458"
    INDEX 01 02:07:08
  TRACK 55 AUDIO
    TITLE "2:cjc085_1459"
    INDEX 01 02:09:40
  TRACK 56 AUDIO
    TITLE "0:"
    INDEX 01 02:14:28
  TRACK 57 AUDIO
    TITLE "3:cjc085_1460"
    INDEX 01 02:15:15
  TRACK 58 AUDIO
    TITLE "0:"
    INDEX 01 02:19:50
  TRACK 59 AUDIO
    TITLE "4:cjc085_1461"
    INDEX 01 02:20:38
  TRACK 60 AUDIO
    TITLE "2:cjc085_1462"
    INDEX 01 02:23:15
  TRACK 61 AUDIO
    TITLE "0:"
    INDEX 01 02:28:12
  TRACK 62 AUDIO
    TITLE "3:cjc085_1463"
    INDEX 01 02:29:27
  TRACK 63 AUDIO
    TITLE "0:"
    INDEX 01 02:33:01
  TRACK 64 AUDIO
    TITLE "4:cjc085_1464"
    INDEX 01 02:33:23
  TRACK 65 AUDIO
    TITLE "2:cjc085_1465"
    INDEX 01 02:35:61
  TRACK 66 AUDIO
    TITLE "0:"
    INDEX 01 02:40:41
  TRACK 67 AUDIO
    TITLE "3:cjc085_1466"
    INDEX 01 02:40:47
  TRACK 68 AUDIO
    TITLE "0:"
    INDEX 01 02:44:70
